<?xml version="1.0" encoding="UTF-8" standalone="no"?>
<svg
   xmlns:dc="http://purl.org/dc/elements/1.1/"
   xmlns:cc="http://creativecommons.org/ns#"
   xmlns:rdf="http://www.w3.org/1999/02/22-rdf-syntax-ns#"
   xmlns:svg="http://www.w3.org/2000/svg"
   xmlns="http://www.w3.org/2000/svg"
   xmlns:sodipodi="http://sodipodi.sourceforge.net/DTD/sodipodi-0.dtd"
   xmlns:inkscape="http://www.inkscape.org/namespaces/inkscape"
   width="300"
   height="83.584648"
   version="1.1"
   id="svg5716"
   sodipodi:docname="color_logo_transparent-200px.svg"
   inkscape:version="0.92.1 r15371">
  <metadata
     id="metadata5722">
    <rdf:RDF>
      <cc:Work
         rdf:about="">
        <dc:format>image/svg+xml</dc:format>
        <dc:type
           rdf:resource="http://purl.org/dc/dcmitype/StillImage" />
        <dc:title />
      </cc:Work>
    </rdf:RDF>
  </metadata>
  <defs
     id="defs5720" />
  <sodipodi:namedview
     pagecolor="#ffffff"
     bordercolor="#666666"
     borderopacity="1"
     objecttolerance="10"
     gridtolerance="10"
     guidetolerance="10"
     inkscape:pageopacity="0"
     inkscape:pageshadow="2"
     inkscape:window-width="1920"
     inkscape:window-height="1017"
     id="namedview5718"
     showgrid="false"
     inkscape:zoom="1.01"
     inkscape:cx="585.64357"
     inkscape:cy="173.93832"
     inkscape:window-x="-8"
     inkscape:window-y="-8"
     inkscape:window-maximized="1"
     inkscape:current-layer="svg5716" />
  <g
     transform="matrix(0.8554282,0,0,0.8554282,-3.3198811,1.319498e-6)"
     id="g5714">
    <defs
       id="SvgjsDefs1002" />
    <g
       id="main_text"
       rel="mainfill"
       name="main_text"
       transform="translate(106.38036,5.5960016)"
       style="fill:#d5d5d5">
      <path
         d="m 17.184,29.904 c -1.44,4.464 -1.68,6.912 -2.4,9.6 C 14.112,42 12.864,45.84 11.904,48 11.52,48.816 10.128,50.496 8.4,49.872 7.008,49.344 4.56,46.608 4.512,46.32 4.032,42.576 3.072,39.12 2.448,35.232 1.728,30.672 1.44,29.76 0.624,25.152 0.096,21.984 0,19.296 0.048,17.712 c -0.24,-2.688 3.456,-1.872 5.184,-1.584 0.72,0.144 2.304,1.632 2.688,2.64 0.96,3.6 1.296,5.568 1.92,9.792 0.624,3.744 1.2,8.112 1.824,11.808 1.056,-3.648 1.872,-7.008 2.928,-10.944 0.432,-0.912 0.96,-3.312 1.44,-3.792 0.816,-0.672 4.224,-0.768 4.704,1.344 0.528,2.304 1.488,5.28 1.92,8.352 0.24,1.152 1.488,6.144 1.92,7.248 0.624,-5.616 1.44,-12.816 1.488,-16.848 0,-2.688 -1.248,-7.92 -1.056,-9.792 0.144,-1.44 3.072,-3.264 3.792,-1.104 0.432,4.512 0.432,8.496 0.048,12.864 -0.288,3.36 -0.288,6.096 -0.768,9.408 -0.384,2.976 -0.576,6 -1.2,8.928 -0.336,1.632 -1.2,3.264 -1.872,3.024 C 24,49.632 21.408,48.288 21.12,48 c -1.728,-1.728 -2.544,-6.96 -3.024,-9.216 -0.528,-2.496 -0.48,-5.616 -0.912,-8.88 z m 17.52,-15.648 c 1.632,0 5.424,0.816 5.712,2.4 0.096,0.384 0.144,0.768 0.144,1.152 0.096,1.68 0,3.552 0.192,5.28 0.096,1.392 -0.144,3.264 -0.048,4.608 0.048,0.912 0.048,0.912 0.912,0.864 -0.096,-0.24 3.744,-0.24 4.464,-0.24 2.016,-0.096 3.936,-0.432 5.904,-0.048 0.576,0.096 0.816,-0.096 0.768,-0.672 -0.048,-1.344 -0.096,-3.12 -0.096,-4.416 0.192,-2.832 -0.192,-5.616 -0.192,-8.448 -0.048,-0.432 0.144,-0.576 0.528,-0.528 0.576,0.048 2.112,0.288 2.736,0.384 0.336,0.096 0.24,0.768 0.24,1.296 0,1.344 0.432,2.64 0.384,4.032 -0.096,1.248 0.144,2.016 0.096,3.792 0.096,0.48 -0.144,1.824 -0.192,2.304 0,2.016 -0.048,3.12 0.096,5.136 0.24,2.736 0.336,5.472 0.624,8.16 0.144,1.2 -0.336,2.4 -0.096,3.552 0.24,1.152 0.192,2.304 0.096,3.456 -0.096,0.672 -0.432,1.104 -0.96,1.44 -1.68,1.584 -2.928,0.24 -3.168,-1.2 -0.192,-1.008 -0.096,-6.384 -0.048,-7.392 0.096,-3.84 0.096,-2.88 0.096,-6.528 -0.048,-0.576 0.096,-0.816 -0.288,-1.2 -0.192,-0.144 -4.272,0.048 -4.848,0.096 -2.256,0.144 -4.272,0.192 -6.288,0.048 -0.576,-0.048 -0.912,0.336 -0.912,1.056 -0.048,1.056 -0.048,2.064 0,3.12 0.096,2.544 0.672,4.128 0.624,6.72 -0.048,0.864 0.096,1.776 0.192,2.64 0.048,0.672 -0.144,1.2 -0.72,1.632 -0.48,0.288 -0.96,0.528 -1.296,1.104 -0.144,0.24 -4.8,0.192 -4.992,-0.096 -1.056,-1.296 -1.872,-2.688 -1.872,-4.464 0,-1.968 0.048,-3.936 0.144,-5.904 0.096,-2.448 0.192,-4.944 0,-7.392 -0.048,-1.056 0.048,-2.16 -0.048,-3.216 -0.096,-1.152 0.048,-2.256 0.048,-3.36 0.096,-3.024 0.096,-7.536 0.192,-7.872 0.336,-1.008 1.584,-1.296 1.872,-1.296 z m 52.512,15.792 c 0,3.408 -0.384,7.2 -0.912,9.792 -0.72,3.552 -4.704,7.488 -8.064,8.592 -4.464,1.44 -9.504,1.104 -13.104,-2.496 -2.64,-2.592 -4.08,-4.656 -4.512,-7.536 -0.432,-3.024 -0.768,-7.104 -0.528,-10.176 0.288,-3.936 1.536,-6.576 4.032,-9.504 3.072,-3.6 6.72,-4.656 10.416,-4.416 2.544,0.144 6.24,1.344 7.968,3.024 3.504,3.408 4.704,8.208 4.704,12.72 z M 75.696,18.144 c -4.032,0.432 -5.856,3.36 -6.72,5.952 -0.912,2.592 -1.008,6.192 -1.056,9.12 -0.048,2.688 1.2,5.616 2.352,7.872 1.728,2.208 3.504,5.808 7.344,4.272 5.424,-2.112 7.008,-8.64 6.528,-14.736 -0.288,-3.792 -1.44,-7.056 -2.592,-9.072 -0.864,-1.536 -3.12,-3.408 -5.856,-3.408 z m 15.072,17.568 c 0.192,-3.552 0.192,-5.664 -0.048,-9.216 -0.192,-3.648 -0.144,-3.504 -0.096,-7.152 0,-0.336 -0.048,-2.064 0,-2.4 0.048,-0.48 1.152,-2.976 1.824,-2.88 1.68,-0.48 3.6,0.096 4.032,0.336 0.912,0.48 1.344,2.016 1.344,3.312 0,3.84 0.192,7.488 0.24,11.424 0.24,4.032 0.192,9.888 0.384,15.744 0.672,0.672 1.536,0.48 2.544,0.336 1.488,-0.096 2.112,-0.48 3.312,-0.096 1.44,0.72 2.112,2.304 0.144,2.784 -1.008,0 -2.064,-0.048 -3.072,-0.048 -3.36,0.096 -1.44,0 -4.944,0.096 -1.248,0.048 -3.648,-0.432 -4.224,-0.624 -1.728,-0.576 -1.44,-3.264 -1.44,-5.376 0.192,-3.072 -0.096,-4.56 0,-6.24 z m 18.72,3.84 c 0.144,-2.304 -0.096,-5.088 -0.048,-9.264 0.048,-3.36 -0.432,-3.072 -0.192,-8.064 0.048,-1.44 -0.144,-4.704 -0.144,-5.136 0,-1.056 -0.144,-2.304 0.72,-2.352 0.432,-0.048 4.176,-0.096 5.184,-0.144 3.264,-0.24 5.328,-0.48 7.248,-0.192 1.584,0.24 1.392,2.592 0.384,2.88 -1.104,0.096 -3.408,-0.096 -5.376,0.384 -0.384,0.048 -0.528,0.288 -0.528,0.672 0.192,2.304 -0.144,4.608 0.144,6.816 0.096,0.576 0.24,2.256 0.336,2.88 0,0.48 0,0.672 0.288,0.624 1.632,-0.144 2.496,-0.384 3.072,-0.24 0.816,0.48 0.576,1.68 0.384,2.112 -0.24,0.576 -2.448,0.528 -3.552,0.528 -0.048,0.096 0.192,6.288 0.192,6.576 0.144,2.736 0.192,4.56 0.096,7.104 3.36,0.384 5.232,-0.24 7.104,0.288 0.528,0.816 1.392,1.92 0.192,2.352 -2.976,0.816 -5.232,1.056 -8.16,1.056 -2.016,0 -5.472,0.048 -6.336,-0.432 -0.672,-0.384 -1.344,-5.136 -1.008,-8.448 z m 43.68,-6.384 c 1.872,0 1.44,3.504 1.44,4.8 -0.048,1.872 -0.144,3.312 -0.288,5.184 -0.048,1.2 0.192,2.4 0.24,3.6 0,0.192 0.096,0.432 0.096,0.672 -0.048,0.384 0.144,0.96 -0.288,1.056 -0.48,0.144 -4.416,0 -4.8,-0.432 -0.336,-0.384 -0.48,-0.816 -0.624,-1.296 v -0.144 c -0.72,0.48 -1.728,1.056 -2.592,1.296 -1.728,0.432 -1.968,0.96 -3.648,0.864 -4.992,-0.336 -5.808,-1.2 -7.872,-2.736 -1.632,-1.296 -3.264,-3.936 -3.936,-5.616 -0.864,-2.016 -1.824,-5.04 -1.872,-7.2 -0.096,-2.208 0.384,-5.328 0.96,-7.488 0.576,-2.4 1.584,-3.984 2.976,-6.144 1.104,-1.728 2.736,-2.976 4.368,-4.08 0.96,-0.672 4.368,-1.44 5.664,-1.44 2.64,-0.048 4.32,0.096 6.192,0.96 1.392,0.624 1.776,0.72 3.36,2.304 1.344,1.296 1.728,4.08 1.536,5.856 -0.288,2.448 -3.696,3.888 -5.328,2.832 -1.056,-0.72 -0.672,-6 -1.584,-7.536 -0.768,-1.104 -1.008,-1.344 -2.88,-1.344 -2.016,0 -4.704,5.088 -5.952,8.448 -0.624,1.68 -1.296,4.848 -1.488,6.576 -0.288,2.976 0.144,4.464 1.296,7.296 1.008,2.496 4.224,5.712 6.72,5.856 0.768,0.048 1.056,0.144 2.736,-0.912 0.912,-0.912 0.672,-3.504 0.816,-4.896 0.096,-0.72 0.048,-1.92 0.048,-2.64 0,-0.72 -0.24,-1.104 -0.768,-1.248 -1.536,-0.432 -1.44,-2.688 0.624,-2.544 1.008,0.048 3.84,0.144 4.848,0.096 z m 9.552,-18.912 c 3.264,-0.192 5.856,0.24 8.256,0.816 2.736,0.528 4.272,1.92 5.904,4.128 0.96,1.344 1.104,4.752 1.008,6.432 -0.192,3.072 -0.816,5.04 -2.832,6.72 -0.96,0.864 -2.4,1.344 -3.984,1.584 2.688,1.248 4.08,2.832 5.664,5.232 0.816,1.248 1.728,2.256 2.592,3.936 0.144,0.288 1.344,1.872 1.632,2.64 0.288,0.72 -0.624,1.584 -0.912,1.68 -2.256,0.624 -3.168,-3.12 -4.368,-4.416 -2.16,-2.256 -2.448,-4.56 -5.376,-6.72 -1.2,-1.104 -2.928,-1.2 -4.224,-1.104 -0.144,2.784 -0.288,2.448 -0.24,5.856 0,1.104 0.096,2.976 -0.096,4.032 0,1.2 -1.056,3.264 -2.736,4.128 -1.296,0.624 -4.416,-0.528 -4.56,-2.112 -0.096,-3.312 -0.24,-6.336 -0.048,-9.36 0.144,-3.024 0.192,-6 -0.192,-9.024 -0.24,-3.504 0.048,-6.144 0,-9.6 -0.096,-4.128 1.44,-4.464 4.512,-4.848 z m 3.12,18.576 c 1.824,0.192 3.264,-0.24 3.792,-0.48 2.688,-1.056 2.736,-3.168 3.024,-5.616 0,-1.968 0,-3.744 -0.768,-6 -0.864,-2.832 -2.688,-4.08 -4.752,-4.128 -0.768,0 -1.44,-0.192 -2.208,-0.096 -0.528,0 -0.144,4.224 0.048,7.536 0.096,1.536 0.096,5.952 0.864,8.784 z m 42.24,7.296 c 0.096,0.384 1.296,4.128 -0.576,3.888 -2.016,-0.24 -2.4,-0.912 -2.784,-2.4 -0.864,-3.264 -1.584,-5.664 -2.64,-9.408 -1.008,0 -1.68,0.048 -2.496,0.096 -1.488,0.096 -4.32,0.144 -5.328,0.192 -0.624,2.352 -1.296,3.072 -2.4,8.352 -0.72,3.408 0.144,6.288 -4.608,8.832 -0.912,0.48 -3.168,-0.624 -3.12,-0.864 0.912,-8.064 3.36,-15.216 5.28,-22.224 0.816,-3.12 1.536,-6.288 2.736,-9.36 0.384,-1.056 0.768,-2.304 1.776,-2.88 2.64,-1.488 5.136,0.288 6.384,0.96 0.96,0.528 2.688,7.68 3.888,11.28 1.968,5.952 2.448,7.68 3.888,13.536 z m -9.696,-9.936 c 0.336,0 1.584,-0.144 3.072,-0.144 -0.336,-0.96 -1.536,-5.616 -2.112,-7.008 0,-0.048 -1.056,-3.552 -1.392,-3.552 -0.48,0.048 -1.296,2.688 -1.536,3.36 -0.624,1.824 -1.296,5.328 -1.92,7.248 1.104,0 2.256,0.096 3.888,0.096 z m 21.696,13.92 c 0,1.872 0.144,4.032 -1.296,4.032 -1.104,0 -3.36,0.48 -4.464,-1.392 -1.68,-2.832 -0.576,-11.568 -0.672,-14.496 -0.192,-5.184 0.288,-9.072 0.144,-14.352 -1.632,-2.016 -0.768,-3.504 0.336,-3.6 1.056,0 3.12,-0.384 4.752,0.912 0.864,0.672 1.2,1.776 0.96,5.376 0.24,4.368 -0.288,5.808 0,10.416 0.24,4.464 0.24,8.544 0.24,13.104 z m 3.504,-28.272 c 0.24,-1.824 2.064,-1.632 3.12,-1.44 0.576,0.144 1.392,0.576 1.584,0.816 0.576,0.864 1.104,1.632 1.872,2.88 1.872,3.12 3.504,6.096 5.616,9.12 1.296,1.872 2.544,4.704 3.84,6.576 1.104,1.68 1.152,2.16 1.728,2.064 -0.288,-1.968 -0.912,-5.28 -0.816,-7.872 -0.096,-4.128 -0.576,-10.992 -0.48,-12.288 0.144,-2.208 6.336,-1.68 6.576,0.288 0.288,2.688 0.672,6.768 0.72,9.456 0.096,1.968 0.24,3.888 0.336,5.856 0.048,1.296 0.192,2.64 0.288,3.936 0.144,1.92 -0.096,3.792 0,5.712 0.096,1.968 0.72,6.96 -0.576,7.056 -0.24,0 -3.264,1.056 -4.368,-0.336 -0.576,-0.72 -1.056,-1.728 -1.632,-3.264 -0.864,-2.304 -1.2,-3.12 -2.064,-4.848 -1.104,-2.16 -2.016,-4.176 -3.264,-6.192 -1.536,-2.448 -1.776,-3.264 -4.272,-7.536 -0.096,1.248 0.192,1.968 0.288,3.312 0.288,3.36 0.48,2.208 0.48,5.568 0,2.4 0.048,4.848 0.048,7.296 0.048,1.152 0,2.304 0.048,3.504 0,0.528 -0.24,0.96 -0.528,1.296 -1.152,1.68 -6,1.968 -6.528,0.768 -0.624,-1.152 -0.816,-3.36 -0.912,-4.656 -0.192,-1.92 -0.24,-3.888 -0.24,-5.808 0.096,-4.8 -0.336,-8.544 -0.72,-13.248 -0.192,-1.92 -0.144,-3.84 -0.192,-5.712 -0.048,-0.912 -0.096,-1.152 0.048,-2.304 z"
         id="path5675"
         inkscape:connector-curvature="0" />
    </g>
    <g
       id="slogan_text"
       rel="mainfill"
       name="slogan_text"
       transform="translate(105.74836,59.532)"
       style="fill:#d5d5d5">
      <path
         d="M 8.76,20 C 8.5,19.08 8.08,17.48 7.64,15.84 H 2.92 L 1.8,20 H 0.44 c 0.42,-1.62 1.9,-7.14 2.52,-9.42 0.74,-2.66 1.08,-3.2 1.44,-3.9 0,0 0.4,-0.12 0.88,-0.12 0.46,0 0.88,0.12 0.88,0.12 0.34,0.7 0.68,1.24 1.42,3.9 L 10.12,20 Z M 3.2,14.76 H 7.34 C 6.96,13.3 6.58,11.9 6.32,10.98 5.9,9.34 5.54,8.32 5.28,7.62 5,8.32 4.66,9.34 4.22,10.98 Z m 13.92,-3.72 h 1.3 v 4.42 c 0,1.5 -0.1,2.9 -0.32,4.14 -0.96,0.38 -2,0.6 -3.18,0.6 -1.16,0 -2.2,-0.22 -3.16,-0.6 -0.22,-1.24 -0.32,-2.64 -0.32,-4.14 v -4.42 h 1.3 v 4.44 c 0,1.2 0.18,3.4 0.18,3.4 0,0 1.08,0.26 2,0.26 0.94,0 2,-0.26 2,-0.26 0,0 0.2,-2.2 0.2,-3.4 z m 6.66,4.76 c -1.18,0 -2.3,-0.22 -3.26,-0.6 0,0 -0.32,-1.04 -0.32,-1.96 0,-0.9 0.32,-1.9 0.32,-1.9 0.96,-0.38 2.08,-0.6 3.26,-0.6 1.18,0 2.12,0.22 3.08,0.6 0,0 0.14,0.42 0.24,0.96 -0.54,-0.14 -1.92,-0.5 -3.32,-0.5 -0.94,0 -2.08,0.26 -2.08,0.26 0,0 -0.2,0.28 -0.2,1.18 0,0.92 0.2,1.24 0.2,1.24 0,0 1.14,0.26 2.08,0.26 1.18,0 2.28,0.22 3.24,0.6 0,0 0.32,1.22 0.32,2.12 0,0.92 -0.32,2.14 -0.32,2.14 -0.96,0.38 -2.06,0.6 -3.24,0.6 -1.18,0 -2.3,-0.22 -3.26,-0.6 0,0 -0.1,-0.42 -0.2,-0.96 0.56,0.14 2.14,0.5 3.46,0.5 0.92,0 2.08,-0.26 2.08,-0.26 0,0 0.18,-0.52 0.18,-1.42 0,-0.88 -0.18,-1.4 -0.18,-1.4 0,0 -1.16,-0.26 -2.08,-0.26 z m 10.34,3.34 c 0.74,0 1.56,-0.16 1.86,-0.22 -0.08,0.4 -0.2,0.78 -0.34,1.14 -0.48,0.1 -0.98,0.14 -1.52,0.14 -1.18,0 -2.22,-0.22 -3.18,-0.6 -0.2,-1.24 -0.32,-2.64 -0.32,-4.14 v -3.34 h -2 c 0.08,-0.38 0.18,-0.74 0.32,-1.06 h 1.68 v -2.1 c 0.42,-0.14 0.84,-0.26 1.3,-0.34 v 2.44 h 3.68 c -0.06,0.36 -0.16,0.72 -0.26,1.06 h -3.42 v 3.36 c 0,1.2 0.2,3.4 0.2,3.4 0,0 1.06,0.26 2,0.26 z m 6.84,-8.4 c 0.4,0 0.8,0.02 1.2,0.08 -0.06,0.36 -0.12,0.7 -0.22,1.04 -0.32,-0.04 -0.66,-0.06 -0.98,-0.06 -0.94,0 -2.08,0.26 -2.08,0.26 0,0 -0.2,2.2 -0.2,3.4 V 20 h -1.3 v -4.54 c 0,-1.48 0.1,-2.88 0.32,-4.12 0.96,-0.38 2.08,-0.6 3.26,-0.6 z m 9.28,0.6 c 0.22,1.24 0.32,2.64 0.32,4.12 0,1.5 -0.1,2.9 -0.32,4.14 -0.96,0.38 -1.98,0.6 -3.16,0.6 -1.18,0 -2.2,-0.22 -3.18,-0.6 0,0 -0.32,-0.9 -0.32,-2.3 0,-1.38 0.32,-2.28 0.32,-2.28 0.98,-0.38 2,-0.6 3.18,-0.6 0.74,0 1.52,0.1 2.16,0.24 -0.04,-1.18 -0.16,-2.6 -0.16,-2.6 0,0 -1.08,-0.26 -2,-0.26 -1.36,0 -2.66,0.34 -3.22,0.48 l 0.12,-0.94 c 0.98,-0.38 1.92,-0.6 3.1,-0.6 1.18,0 2.2,0.22 3.16,0.6 z m -3.16,7.8 c 0.92,0 2,-0.26 2,-0.26 0,0 0.16,-1.94 0.18,-3.2 -0.64,-0.1 -1.42,-0.2 -2.18,-0.2 -0.94,0 -2,0.26 -2,0.26 0,0 -0.2,0.68 -0.2,1.56 0,0.9 0.2,1.58 0.2,1.58 0,0 1.06,0.26 2,0.26 z M 52.34,20 V 6.72 c 0.46,0.08 0.9,0.18 1.32,0.3 V 20 Z M 56.76,7.24 c 0.04,0.26 0.08,0.4 0.08,0.7 0,0.3 -0.04,0.46 -0.08,0.7 -0.26,0.08 -0.34,0.12 -0.64,0.12 -0.32,0 -0.4,-0.04 -0.64,-0.12 -0.06,-0.24 -0.1,-0.4 -0.1,-0.7 0,-0.3 0.04,-0.44 0.1,-0.7 0.24,-0.06 0.32,-0.12 0.64,-0.12 0.3,0 0.38,0.06 0.64,0.12 z m 0,4.14 V 20 h -1.3 v -8.96 c 0.46,0.06 0.9,0.2 1.3,0.34 z m 8.42,-0.04 c 0.22,1.24 0.32,2.64 0.32,4.12 0,1.5 -0.1,2.9 -0.32,4.14 -0.96,0.38 -1.98,0.6 -3.16,0.6 -1.18,0 -2.2,-0.22 -3.18,-0.6 0,0 -0.32,-0.9 -0.32,-2.3 0,-1.38 0.32,-2.28 0.32,-2.28 0.98,-0.38 2,-0.6 3.18,-0.6 0.74,0 1.52,0.1 2.16,0.24 -0.04,-1.18 -0.16,-2.6 -0.16,-2.6 0,0 -1.08,-0.26 -2,-0.26 -1.36,0 -2.66,0.34 -3.22,0.48 l 0.12,-0.94 c 0.98,-0.38 1.92,-0.6 3.1,-0.6 1.18,0 2.2,0.22 3.16,0.6 z m -3.16,7.8 c 0.92,0 2,-0.26 2,-0.26 0,0 0.16,-1.94 0.18,-3.2 -0.64,-0.1 -1.42,-0.2 -2.18,-0.2 -0.94,0 -2,0.26 -2,0.26 0,0 -0.2,0.68 -0.2,1.56 0,0.9 0.2,1.58 0.2,1.58 0,0 1.06,0.26 2,0.26 z"
         id="path5678"
         inkscape:connector-curvature="0" />
    </g>
    <g
       id="SvgjsG1010"
       rel="mainfill"
       name="symbol"
       transform="matrix(1.1657785,0,0,1.1657785,-13.397125,-9.4369785)"
       style="fill:#d5d5d5">
      <path
         d="m 50.257,46.649 c 0,0 0.424,-6.388 -6.264,-6.717 0,0 0.253,5.59 6.264,6.717 z"
         id="path5681"
         inkscape:connector-curvature="0" />
      <path
         d="m 61.488,30.824 c -6.542,-1.435 -7.808,4.841 -7.808,4.841 6.096,0.488 7.808,-4.841 7.808,-4.841 z"
         id="path5683"
         inkscape:connector-curvature="0" />
      <path
         d="m 49.853,54.055 c 5.855,-1.763 5.508,-7.35 5.508,-7.35 -6.614,1.044 -5.508,7.35 -5.508,7.35 z"
         id="path5685"
         inkscape:connector-curvature="0" />
      <path
         d="m 51.264,41.792 c 0,0 0.426,-6.387 -6.262,-6.718 -0.001,0 0.253,5.592 6.262,6.718 z"
         id="path5687"
         inkscape:connector-curvature="0" />
      <path
         d="m 52.35,37.265 c 0,0 0.425,-6.386 -6.267,-6.717 0,0 0.254,5.591 6.267,6.717 z"
         id="path5689"
         inkscape:connector-curvature="0" />
      <path
         d="m 60.078,23.858 c -6.586,1.216 -5.316,7.49 -5.316,7.49 5.807,-1.915 5.316,-7.49 5.316,-7.49 z"
         id="path5691"
         inkscape:connector-curvature="0" />
      <path
         d="m 50.871,46.811 c 6.111,-0.259 7.159,-5.756 7.159,-5.756 -6.668,-0.628 -7.159,5.756 -7.159,5.756 z"
         id="path5693"
         inkscape:connector-curvature="0" />
      <path
         d="m 52.119,41.008 c 6.102,0.418 7.747,-4.933 7.747,-4.933 -6.556,-1.355 -7.747,4.933 -7.747,4.933 z"
         id="path5695"
         inkscape:connector-curvature="0" />
      <path
         d="m 54.167,32.845 c 0,0 0.423,-6.387 -6.266,-6.718 0,0 0.256,5.591 6.266,6.718 z"
         id="path5697"
         inkscape:connector-curvature="0" />
      <path
         d="m 55.812,59.953 c -6.653,0.769 -5.811,7.115 -5.811,7.115 5.923,-1.519 5.811,-7.115 5.811,-7.115 z"
         id="path5699"
         inkscape:connector-curvature="0" />
      <path
         d="m 55.395,53.831 c -6.683,0.442 -6.15,6.822 -6.15,6.822 5.988,-1.228 6.15,-6.822 6.15,-6.822 z"
         id="path5701"
         inkscape:connector-curvature="0" />
      <path
         d="m 49.085,56.842 c 0,0 0.424,-6.391 -6.264,-6.719 0,0 0.253,5.591 6.264,6.719 z"
         id="path5703"
         inkscape:connector-curvature="0" />
      <path
         d="m 49.569,51.41 c 0,0 0.426,-6.386 -6.264,-6.717 10e-4,0 0.254,5.592 6.264,6.717 z"
         id="path5705"
         inkscape:connector-curvature="0" />
      <path
         d="m 43.071,61.268 c 0,0 0.253,5.592 6.265,6.718 -10e-4,-0.001 0.424,-6.387 -6.265,-6.718 z"
         id="path5707"
         inkscape:connector-curvature="0" />
      <path
         d="m 49.059,62.457 c 0,0 0.425,-6.388 -6.264,-6.717 0,0 0.256,5.591 6.264,6.717 z"
         id="path5709"
         inkscape:connector-curvature="0" />
      <path
         d="m 83.114,61.629 c 0,0 6.599,-7.617 -3.84,-43.781 0,0 0.435,-0.781 0.879,-1.843 1.133,-2.049 1.716,-4.152 0.38,-5.36 -0.004,-0.004 -0.007,-0.004 -0.011,-0.007 -0.138,-0.151 -0.314,-0.273 -0.515,-0.377 -0.07,-0.044 -0.138,-0.082 -0.209,-0.119 -0.01,-0.003 -0.018,-0.008 -0.032,-0.012 -3.015,-1.523 -6.823,2.599 -7.138,2.953 -1.08,0.667 -2.422,1.394 -3.985,2.103 -1.032,-1.543 -2.787,-2.561 -4.784,-2.561 -0.141,0 -0.272,0.031 -0.409,0.042 -0.546,-2.61 -2.86,-4.572 -5.632,-4.572 -2.371,0 -4.403,1.435 -5.285,3.482 C 51.651,9.53 49.619,8.095 47.248,8.095 44.875,8.095 42.844,9.53 41.962,11.577 41.08,9.53 39.048,8.095 36.676,8.095 c -2.797,0 -5.125,1.996 -5.643,4.643 -1.416,0.278 -2.631,1.084 -3.468,2.193 -6.417,-2.74 -10.051,-1.358 -11.305,-0.638 -0.071,0.037 -0.132,0.077 -0.196,0.119 -0.206,0.128 -0.344,0.23 -0.344,0.23 l -0.087,0.091 c -0.055,0.052 -0.107,0.105 -0.158,0.164 l -0.064,0.067 0.019,0.012 c -0.713,0.939 -0.425,2.473 1.909,4.974 0,0 -5.847,4.178 0.279,39.299 0,0 -4.939,15.743 0.078,23.526 7.018,1.056 16.031,1.667 21.835,-0.733 0,0 -8.135,5.463 -21.873,2.337 -1.279,2.19 -3.532,7.78 6.968,7.514 l -0.031,0.018 h 58.139 l 1.26,-6.628 -0.015,-0.017 C 89.208,68.474 83.114,61.629 83.114,61.629 Z M 55.212,79.807 55.195,79.77 50.751,86.302 C 49.946,83.242 47.432,79.723 46.889,78.988 36.528,66.155 20.185,64.767 20.185,64.767 c 0,0 6.629,-1.729 15.782,1.841 5.623,2.193 10.488,7.72 13.416,11.668 l -0.671,-6.245 c 0,0 -5.204,-2.159 -7.435,-8.981 l -2.682,-6.406 c 0,0 2.375,3.356 3.241,3.395 0.864,0.033 1.344,0.338 1.344,0.338 l -2.049,-5.064 c 0,0 -1.159,-2.725 -1.938,-4.133 -0.78,-1.409 1.6,2.922 2.799,3.197 1.2,0.272 0.893,-0.219 0.893,-0.219 0,0 -1.17,-2.111 -1.914,-4.384 -0.743,-2.276 -1.539,-4.044 -1.539,-4.044 0,0 2.187,3.187 2.879,3.408 0.695,0.225 1.253,-0.231 1.253,-0.231 0,0 -1.86,-3.919 -2.142,-4.665 -0.285,-0.744 -1.119,-2.618 -1.119,-2.618 0,0 1.676,2.162 2.394,2.131 0.719,-0.029 1.196,-0.696 1.196,-0.696 0,0 -0.879,-2.953 -1.407,-4.336 -0.525,-1.382 -0.647,-1.703 -0.957,-2.194 -0.308,-0.492 1.541,1.486 1.541,1.486 l 1.614,0.723 c 0,0 -0.363,-3.515 -0.9,-4.285 -0.537,-0.771 -1.077,-2.512 -1.077,-2.512 0,0 1.553,1.844 2.672,1.904 1.122,0.062 1.122,0.062 1.122,0.062 0,0 -1.119,-2.618 -2.076,-4.811 -0.957,-2.193 -1.2,-2.832 -1.2,-2.832 0,0 1.332,2.538 3.65,2.872 l 0.588,0.264 0.557,-0.456 -1.083,-3.484 -1.2,-2.832 c 0,0 1.17,2.112 1.971,2.295 0.799,0.183 2.891,0.239 2.891,0.239 l 3.726,2.113 c 0,0 2.646,-3.93 3.817,-4.375 1.162,-0.443 1.11,-0.189 3.082,-1.174 1.021,-0.511 3.425,-2.521 3.425,-2.521 l -3.332,4.677 -0.479,3.227 -1.511,1.791 c 0,0 1.084,0.928 1.441,0.913 0.362,-0.016 1.977,0.709 2.4,0.547 0.427,-0.161 2.875,-1.093 2.875,-1.093 l -4.579,3.327 -1.47,1.899 0.948,0.248 1.382,-0.527 1.504,-0.208 -3.436,3.134 -0.886,1.19 c 0,0 -0.847,1.296 -1.045,1.736 -0.196,0.44 -0.845,1.297 1.692,-0.033 2.536,-1.334 2.536,-1.334 2.536,-1.334 0,0 -3.076,2.149 -3.514,2.924 -0.435,0.773 -1.069,1.987 -1.069,1.987 l -2.053,2.61 c 0,0 1.36,-0.273 2.021,-0.771 0.666,-0.495 -0.764,1.51 -0.764,1.51 l -0.897,1.804 c 0,0 -1.718,2.844 -1.953,3.179 -0.239,0.333 -0.872,1.549 -0.872,1.549 0,0 2.305,-0.023 3.049,-0.308 0.743,-0.283 1.815,-1.303 1.815,-1.303 l -2.34,3.45 -1.211,2.896 -0.968,0.978 c 0,0 0.628,0.37 0.947,0.248 0.319,-0.121 1.702,-0.646 2.513,-1.078 0.811,-0.43 2.365,-1.142 2.365,-1.142 l -2.797,2.89 -0.451,2.973 c 0,0 -2.26,6.219 -6.444,8.66 l 1.727,8.747 c 2.624,-3.757 7.742,-10.117 13.79,-12.479 8.788,-3.424 15.149,-1.768 15.149,-1.768 0,0 -15.568,1.347 -25.52,13.552 z M 80.287,57.232 C 82.984,36.927 75.733,22.394 75.733,22.394 87.2,40.607 80.287,57.232 80.287,57.232 Z"
         id="path5711"
         inkscape:connector-curvature="0" />
    </g>
  </g>
</svg>
