
		<svg width="3168.9815486907473" height="996.9911372754087" xmlns="http://www.w3.org/2000/svg" xmlns:xlink="http://www.w3.org/1999/xlink" version="1.1">
            <g transform="scale(8.449077434537362) translate(10, 10)">
				<defs id="SvgjsDefs1002"/><g id="main_text" rel="mainfill" name="main_text" xmlns:name="mainText_mainfill" fill="#FFFFFF" transform="translate(106.38036162099273, 5.596001625061042)"><path d="M17.184 29.904 c-1.44 4.464 -1.68 6.912 -2.4 9.6 c-0.672 2.496 -1.92 6.336 -2.88 8.496 c-0.384 0.816 -1.776 2.496 -3.504 1.872 c-1.392 -0.528 -3.84 -3.264 -3.888 -3.552 c-0.48 -3.744 -1.44 -7.2 -2.064 -11.088 c-0.72 -4.56 -1.008 -5.472 -1.824 -10.08 c-0.528 -3.168 -0.624 -5.856 -0.576 -7.44 c-0.24 -2.688 3.456 -1.872 5.184 -1.584 c0.72 0.144 2.304 1.632 2.688 2.64 c0.96 3.6 1.296 5.568 1.92 9.792 c0.624 3.744 1.2 8.112 1.824 11.808 c1.056 -3.648 1.872 -7.008 2.928 -10.944 c0.432 -0.912 0.96 -3.312 1.44 -3.792 c0.816 -0.672 4.224 -0.768 4.704 1.344 c0.528 2.304 1.488 5.28 1.92 8.352 c0.24 1.152 1.488 6.144 1.92 7.248 c0.624 -5.616 1.44 -12.816 1.488 -16.848 c0 -2.688 -1.248 -7.92 -1.056 -9.792 c0.144 -1.44 3.072 -3.264 3.792 -1.104 c0.432 4.512 0.432 8.496 0.048 12.864 c-0.288 3.36 -0.288 6.096 -0.768 9.408 c-0.384 2.976 -0.576 6 -1.2 8.928 c-0.336 1.632 -1.2 3.264 -1.872 3.024 c-1.008 0.576 -3.6 -0.768 -3.888 -1.056 c-1.728 -1.728 -2.544 -6.96 -3.024 -9.216 c-0.528 -2.496 -0.48 -5.616 -0.912 -8.88 z M34.704 14.256 c1.632 0 5.424 0.816 5.712 2.4 c0.096 0.384 0.144 0.768 0.144 1.152 c0.096 1.68 0 3.552 0.192 5.28 c0.096 1.392 -0.144 3.264 -0.048 4.608 c0.048 0.912 0.048 0.912 0.912 0.864 c-0.096 -0.24 3.744 -0.24 4.464 -0.24 c2.016 -0.096 3.936 -0.432 5.904 -0.048 c0.576 0.096 0.816 -0.096 0.768 -0.672 c-0.048 -1.344 -0.096 -3.12 -0.096 -4.416 c0.192 -2.832 -0.192 -5.616 -0.192 -8.448 c-0.048 -0.432 0.144 -0.576 0.528 -0.528 c0.576 0.048 2.112 0.288 2.736 0.384 c0.336 0.096 0.24 0.768 0.24 1.296 c0 1.344 0.432 2.64 0.384 4.032 c-0.096 1.248 0.144 2.016 0.096 3.792 c0.096 0.48 -0.144 1.824 -0.192 2.304 c0 2.016 -0.048 3.12 0.096 5.136 c0.24 2.736 0.336 5.472 0.624 8.16 c0.144 1.2 -0.336 2.4 -0.096 3.552 s0.192 2.304 0.096 3.456 c-0.096 0.672 -0.432 1.104 -0.96 1.44 c-1.68 1.584 -2.928 0.24 -3.168 -1.2 c-0.192 -1.008 -0.096 -6.384 -0.048 -7.392 c0.096 -3.84 0.096 -2.88 0.096 -6.528 c-0.048 -0.576 0.096 -0.816 -0.288 -1.2 c-0.192 -0.144 -4.272 0.048 -4.848 0.096 c-2.256 0.144 -4.272 0.192 -6.288 0.048 c-0.576 -0.048 -0.912 0.336 -0.912 1.056 c-0.048 1.056 -0.048 2.064 0 3.12 c0.096 2.544 0.672 4.128 0.624 6.72 c-0.048 0.864 0.096 1.776 0.192 2.64 c0.048 0.672 -0.144 1.2 -0.72 1.632 c-0.48 0.288 -0.96 0.528 -1.296 1.104 c-0.144 0.24 -4.8 0.192 -4.992 -0.096 c-1.056 -1.296 -1.872 -2.688 -1.872 -4.464 c0 -1.968 0.048 -3.936 0.144 -5.904 c0.096 -2.448 0.192 -4.944 0 -7.392 c-0.048 -1.056 0.048 -2.16 -0.048 -3.216 c-0.096 -1.152 0.048 -2.256 0.048 -3.36 c0.096 -3.024 0.096 -7.536 0.192 -7.872 c0.336 -1.008 1.584 -1.296 1.872 -1.296 z M87.21600000000001 30.048 c0 3.408 -0.384 7.2 -0.912 9.792 c-0.72 3.552 -4.704 7.488 -8.064 8.592 c-4.464 1.44 -9.504 1.104 -13.104 -2.496 c-2.64 -2.592 -4.08 -4.656 -4.512 -7.536 c-0.432 -3.024 -0.768 -7.104 -0.528 -10.176 c0.288 -3.936 1.536 -6.576 4.032 -9.504 c3.072 -3.6 6.72 -4.656 10.416 -4.416 c2.544 0.144 6.24 1.344 7.968 3.024 c3.504 3.408 4.704 8.208 4.704 12.72 z M75.696 18.144 c-4.032 0.432 -5.856 3.36 -6.72 5.952 c-0.912 2.592 -1.008 6.192 -1.056 9.12 c-0.048 2.688 1.2 5.616 2.352 7.872 c1.728 2.208 3.504 5.808 7.344 4.272 c5.424 -2.112 7.008 -8.64 6.528 -14.736 c-0.288 -3.792 -1.44 -7.056 -2.592 -9.072 c-0.864 -1.536 -3.12 -3.408 -5.856 -3.408 z M90.768 35.712 c0.192 -3.552 0.192 -5.664 -0.048 -9.216 c-0.192 -3.648 -0.144 -3.504 -0.096 -7.152 c0 -0.336 -0.048 -2.064 0 -2.4 c0.048 -0.48 1.152 -2.976 1.824 -2.88 c1.68 -0.48 3.6 0.096 4.032 0.336 c0.912 0.48 1.344 2.016 1.344 3.312 c0 3.84 0.192 7.488 0.24 11.424 c0.24 4.032 0.192 9.888 0.384 15.744 c0.672 0.672 1.536 0.48 2.544 0.336 c1.488 -0.096 2.112 -0.48 3.312 -0.096 c1.44 0.72 2.112 2.304 0.144 2.784 c-1.008 0 -2.064 -0.048 -3.072 -0.048 c-3.36 0.096 -1.44 0 -4.944 0.096 c-1.248 0.048 -3.648 -0.432 -4.224 -0.624 c-1.728 -0.576 -1.44 -3.264 -1.44 -5.376 c0.192 -3.072 -0.096 -4.56 0 -6.24 z M109.48800000000001 39.552 c0.144 -2.304 -0.096 -5.088 -0.048 -9.264 c0.048 -3.36 -0.432 -3.072 -0.192 -8.064 c0.048 -1.44 -0.144 -4.704 -0.144 -5.136 c0 -1.056 -0.144 -2.304 0.72 -2.352 c0.432 -0.048 4.176 -0.096 5.184 -0.144 c3.264 -0.24 5.328 -0.48 7.248 -0.192 c1.584 0.24 1.392 2.592 0.384 2.88 c-1.104 0.096 -3.408 -0.096 -5.376 0.384 c-0.384 0.048 -0.528 0.288 -0.528 0.672 c0.192 2.304 -0.144 4.608 0.144 6.816 c0.096 0.576 0.24 2.256 0.336 2.88 c0 0.48 0 0.672 0.288 0.624 c1.632 -0.144 2.496 -0.384 3.072 -0.24 c0.816 0.48 0.576 1.68 0.384 2.112 c-0.24 0.576 -2.448 0.528 -3.552 0.528 c-0.048 0.096 0.192 6.288 0.192 6.576 c0.144 2.736 0.192 4.56 0.096 7.104 c3.36 0.384 5.232 -0.24 7.104 0.288 c0.528 0.816 1.392 1.92 0.192 2.352 c-2.976 0.816 -5.232 1.056 -8.16 1.056 c-2.016 0 -5.472 0.048 -6.336 -0.432 c-0.672 -0.384 -1.344 -5.136 -1.008 -8.448 z M153.168 33.168 c1.872 0 1.44 3.504 1.44 4.8 c-0.048 1.872 -0.144 3.312 -0.288 5.184 c-0.048 1.2 0.192 2.4 0.24 3.6 c0 0.192 0.096 0.432 0.096 0.672 c-0.048 0.384 0.144 0.96 -0.288 1.056 c-0.48 0.144 -4.416 0 -4.8 -0.432 c-0.336 -0.384 -0.48 -0.816 -0.624 -1.296 l0 -0.144 c-0.72 0.48 -1.728 1.056 -2.592 1.296 c-1.728 0.432 -1.968 0.96 -3.648 0.864 c-4.992 -0.336 -5.808 -1.2 -7.872 -2.736 c-1.632 -1.296 -3.264 -3.936 -3.936 -5.616 c-0.864 -2.016 -1.824 -5.04 -1.872 -7.2 c-0.096 -2.208 0.384 -5.328 0.96 -7.488 c0.576 -2.4 1.584 -3.984 2.976 -6.144 c1.104 -1.728 2.736 -2.976 4.368 -4.08 c0.96 -0.672 4.368 -1.44 5.664 -1.44 c2.64 -0.048 4.32 0.096 6.192 0.96 c1.392 0.624 1.776 0.72 3.36 2.304 c1.344 1.296 1.728 4.08 1.536 5.856 c-0.288 2.448 -3.696 3.888 -5.328 2.832 c-1.056 -0.72 -0.672 -6 -1.584 -7.536 c-0.768 -1.104 -1.008 -1.344 -2.88 -1.344 c-2.016 0 -4.704 5.088 -5.952 8.448 c-0.624 1.68 -1.296 4.848 -1.488 6.576 c-0.288 2.976 0.144 4.464 1.296 7.296 c1.008 2.496 4.224 5.712 6.72 5.856 c0.768 0.048 1.056 0.144 2.736 -0.912 c0.912 -0.912 0.672 -3.504 0.816 -4.896 c0.096 -0.72 0.048 -1.92 0.048 -2.64 s-0.24 -1.104 -0.768 -1.248 c-1.536 -0.432 -1.44 -2.688 0.624 -2.544 c1.008 0.048 3.84 0.144 4.848 0.096 z M162.72 14.256 c3.264 -0.192 5.856 0.24 8.256 0.816 c2.736 0.528 4.272 1.92 5.904 4.128 c0.96 1.344 1.104 4.752 1.008 6.432 c-0.192 3.072 -0.816 5.04 -2.832 6.72 c-0.96 0.864 -2.4 1.344 -3.984 1.584 c2.688 1.248 4.08 2.832 5.664 5.232 c0.816 1.248 1.728 2.256 2.592 3.936 c0.144 0.288 1.344 1.872 1.632 2.64 c0.288 0.72 -0.624 1.584 -0.912 1.68 c-2.256 0.624 -3.168 -3.12 -4.368 -4.416 c-2.16 -2.256 -2.448 -4.56 -5.376 -6.72 c-1.2 -1.104 -2.928 -1.2 -4.224 -1.104 c-0.144 2.784 -0.288 2.448 -0.24 5.856 c0 1.104 0.096 2.976 -0.096 4.032 c0 1.2 -1.056 3.264 -2.736 4.128 c-1.296 0.624 -4.416 -0.528 -4.56 -2.112 c-0.096 -3.312 -0.24 -6.336 -0.048 -9.36 c0.144 -3.024 0.192 -6 -0.192 -9.024 c-0.24 -3.504 0.048 -6.144 0 -9.6 c-0.096 -4.128 1.44 -4.464 4.512 -4.848 z M165.84 32.832 c1.824 0.192 3.264 -0.24 3.792 -0.48 c2.688 -1.056 2.736 -3.168 3.024 -5.616 c0 -1.968 0 -3.744 -0.768 -6 c-0.864 -2.832 -2.688 -4.08 -4.752 -4.128 c-0.768 0 -1.44 -0.192 -2.208 -0.096 c-0.528 0 -0.144 4.224 0.048 7.536 c0.096 1.536 0.096 5.952 0.864 8.784 z M208.07999999999998 40.128 c0.096 0.384 1.296 4.128 -0.576 3.888 c-2.016 -0.24 -2.4 -0.912 -2.784 -2.4 c-0.864 -3.264 -1.584 -5.664 -2.64 -9.408 c-1.008 0 -1.68 0.048 -2.496 0.096 c-1.488 0.096 -4.32 0.144 -5.328 0.192 c-0.624 2.352 -1.296 3.072 -2.4 8.352 c-0.72 3.408 0.144 6.288 -4.608 8.832 c-0.912 0.48 -3.168 -0.624 -3.12 -0.864 c0.912 -8.064 3.36 -15.216 5.28 -22.224 c0.816 -3.12 1.536 -6.288 2.736 -9.36 c0.384 -1.056 0.768 -2.304 1.776 -2.88 c2.64 -1.488 5.136 0.288 6.384 0.96 c0.96 0.528 2.688 7.68 3.888 11.28 c1.968 5.952 2.448 7.68 3.888 13.536 z M198.384 30.192 c0.336 0 1.584 -0.144 3.072 -0.144 c-0.336 -0.96 -1.536 -5.616 -2.112 -7.008 c0 -0.048 -1.056 -3.552 -1.392 -3.552 c-0.48 0.048 -1.296 2.688 -1.536 3.36 c-0.624 1.824 -1.296 5.328 -1.92 7.248 c1.104 0 2.256 0.096 3.888 0.096 z M220.07999999999998 44.112 c0 1.872 0.144 4.032 -1.296 4.032 c-1.104 0 -3.36 0.48 -4.464 -1.392 c-1.68 -2.832 -0.576 -11.568 -0.672 -14.496 c-0.192 -5.184 0.288 -9.072 0.144 -14.352 c-1.632 -2.016 -0.768 -3.504 0.336 -3.6 c1.056 0 3.12 -0.384 4.752 0.912 c0.864 0.672 1.2 1.776 0.96 5.376 c0.24 4.368 -0.288 5.808 0 10.416 c0.24 4.464 0.24 8.544 0.24 13.104 z M223.584 15.840000000000003 c0.24 -1.824 2.064 -1.632 3.12 -1.44 c0.576 0.144 1.392 0.576 1.584 0.816 c0.576 0.864 1.104 1.632 1.872 2.88 c1.872 3.12 3.504 6.096 5.616 9.12 c1.296 1.872 2.544 4.704 3.84 6.576 c1.104 1.68 1.152 2.16 1.728 2.064 c-0.288 -1.968 -0.912 -5.28 -0.816 -7.872 c-0.096 -4.128 -0.576 -10.992 -0.48 -12.288 c0.144 -2.208 6.336 -1.68 6.576 0.288 c0.288 2.688 0.672 6.768 0.72 9.456 c0.096 1.968 0.24 3.888 0.336 5.856 c0.048 1.296 0.192 2.64 0.288 3.936 c0.144 1.92 -0.096 3.792 0 5.712 c0.096 1.968 0.72 6.96 -0.576 7.056 c-0.24 0 -3.264 1.056 -4.368 -0.336 c-0.576 -0.72 -1.056 -1.728 -1.632 -3.264 c-0.864 -2.304 -1.2 -3.12 -2.064 -4.848 c-1.104 -2.16 -2.016 -4.176 -3.264 -6.192 c-1.536 -2.448 -1.776 -3.264 -4.272 -7.536 c-0.096 1.248 0.192 1.968 0.288 3.312 c0.288 3.36 0.48 2.208 0.48 5.568 c0 2.4 0.048 4.848 0.048 7.296 c0.048 1.152 0 2.304 0.048 3.504 c0 0.528 -0.24 0.96 -0.528 1.296 c-1.152 1.68 -6 1.968 -6.528 0.768 c-0.624 -1.152 -0.816 -3.36 -0.912 -4.656 c-0.192 -1.92 -0.24 -3.888 -0.24 -5.808 c0.096 -4.8 -0.336 -8.544 -0.72 -13.248 c-0.192 -1.92 -0.144 -3.84 -0.192 -5.712 c-0.048 -0.912 -0.096 -1.152 0.048 -2.304 z"/></g><g id="slogan_text" rel="mainfill" name="slogan_text" xmlns:name="sloganText_mainfill" fill="#FFFFFF" transform="translate(105.7483617707196, 59.53200006484986)"><path d="M8.76 20 c-0.26 -0.92 -0.68 -2.52 -1.12 -4.16 l-4.72 0 l-1.12 4.16 l-1.36 0 c0.42 -1.62 1.9 -7.14 2.52 -9.42 c0.74 -2.66 1.08 -3.2 1.44 -3.9 c0 0 0.4 -0.12 0.88 -0.12 c0.46 0 0.88 0.12 0.88 0.12 c0.34 0.7 0.68 1.24 1.42 3.9 l2.54 9.42 l-1.36 0 z M3.2 14.76 l4.14 0 c-0.38 -1.46 -0.76 -2.86 -1.02 -3.78 c-0.42 -1.64 -0.78 -2.66 -1.04 -3.36 c-0.28 0.7 -0.62 1.72 -1.06 3.36 z M17.12 11.04 l1.3 0 l0 4.42 c0 1.5 -0.1 2.9 -0.32 4.14 c-0.96 0.38 -2 0.6 -3.18 0.6 c-1.16 0 -2.2 -0.22 -3.16 -0.6 c-0.22 -1.24 -0.32 -2.64 -0.32 -4.14 l0 -4.42 l1.3 0 l0 4.44 c0 1.2 0.18 3.4 0.18 3.4 s1.08 0.26 2 0.26 c0.94 0 2 -0.26 2 -0.26 s0.2 -2.2 0.2 -3.4 l0 -4.44 z M23.78 15.8 c-1.18 0 -2.3 -0.22 -3.26 -0.6 c0 0 -0.32 -1.04 -0.32 -1.96 c0 -0.9 0.32 -1.9 0.32 -1.9 c0.96 -0.38 2.08 -0.6 3.26 -0.6 s2.12 0.22 3.08 0.6 c0 0 0.14 0.42 0.24 0.96 c-0.54 -0.14 -1.92 -0.5 -3.32 -0.5 c-0.94 0 -2.08 0.26 -2.08 0.26 s-0.2 0.28 -0.2 1.18 c0 0.92 0.2 1.24 0.2 1.24 s1.14 0.26 2.08 0.26 c1.18 0 2.28 0.22 3.24 0.6 c0 0 0.32 1.22 0.32 2.12 c0 0.92 -0.32 2.14 -0.32 2.14 c-0.96 0.38 -2.06 0.6 -3.24 0.6 s-2.3 -0.22 -3.26 -0.6 c0 0 -0.1 -0.42 -0.2 -0.96 c0.56 0.14 2.14 0.5 3.46 0.5 c0.92 0 2.08 -0.26 2.08 -0.26 s0.18 -0.52 0.18 -1.42 c0 -0.88 -0.18 -1.4 -0.18 -1.4 s-1.16 -0.26 -2.08 -0.26 z M34.12 19.14 c0.74 0 1.56 -0.16 1.86 -0.22 c-0.08 0.4 -0.2 0.78 -0.34 1.14 c-0.48 0.1 -0.98 0.14 -1.52 0.14 c-1.18 0 -2.22 -0.22 -3.18 -0.6 c-0.2 -1.24 -0.32 -2.64 -0.32 -4.14 l0 -3.34 l-2 0 c0.08 -0.38 0.18 -0.74 0.32 -1.06 l1.68 0 l0 -2.1 c0.42 -0.14 0.84 -0.26 1.3 -0.34 l0 2.44 l3.68 0 c-0.06 0.36 -0.16 0.72 -0.26 1.06 l-3.42 0 l0 3.36 c0 1.2 0.2 3.4 0.2 3.4 s1.06 0.26 2 0.26 z M40.96 10.74 c0.4 0 0.8 0.02 1.2 0.08 c-0.06 0.36 -0.12 0.7 -0.22 1.04 c-0.32 -0.04 -0.66 -0.06 -0.98 -0.06 c-0.94 0 -2.08 0.26 -2.08 0.26 s-0.2 2.2 -0.2 3.4 l0 4.54 l-1.3 0 l0 -4.54 c0 -1.48 0.1 -2.88 0.32 -4.12 c0.96 -0.38 2.08 -0.6 3.26 -0.6 z M50.24 11.34 c0.22 1.24 0.32 2.64 0.32 4.12 c0 1.5 -0.1 2.9 -0.32 4.14 c-0.96 0.38 -1.98 0.6 -3.16 0.6 s-2.2 -0.22 -3.18 -0.6 c0 0 -0.32 -0.9 -0.32 -2.3 c0 -1.38 0.32 -2.28 0.32 -2.28 c0.98 -0.38 2 -0.6 3.18 -0.6 c0.74 0 1.52 0.1 2.16 0.24 c-0.04 -1.18 -0.16 -2.6 -0.16 -2.6 s-1.08 -0.26 -2 -0.26 c-1.36 0 -2.66 0.34 -3.22 0.48 l0.12 -0.94 c0.98 -0.38 1.92 -0.6 3.1 -0.6 s2.2 0.22 3.16 0.6 z M47.08 19.14 c0.92 0 2 -0.26 2 -0.26 s0.16 -1.94 0.18 -3.2 c-0.64 -0.1 -1.42 -0.2 -2.18 -0.2 c-0.94 0 -2 0.26 -2 0.26 s-0.2 0.68 -0.2 1.56 c0 0.9 0.2 1.58 0.2 1.58 s1.06 0.26 2 0.26 z M52.34 20 l0 -13.28 c0.46 0.08 0.9 0.18 1.32 0.3 l0 12.98 l-1.32 0 z M56.760000000000005 7.24 c0.04 0.26 0.08 0.4 0.08 0.7 s-0.04 0.46 -0.08 0.7 c-0.26 0.08 -0.34 0.12 -0.64 0.12 c-0.32 0 -0.4 -0.04 -0.64 -0.12 c-0.06 -0.24 -0.1 -0.4 -0.1 -0.7 s0.04 -0.44 0.1 -0.7 c0.24 -0.06 0.32 -0.12 0.64 -0.12 c0.3 0 0.38 0.06 0.64 0.12 z M56.760000000000005 11.38 l0 8.62 l-1.3 0 l0 -8.96 c0.46 0.06 0.9 0.2 1.3 0.34 z M65.18 11.34 c0.22 1.24 0.32 2.64 0.32 4.12 c0 1.5 -0.1 2.9 -0.32 4.14 c-0.96 0.38 -1.98 0.6 -3.16 0.6 s-2.2 -0.22 -3.18 -0.6 c0 0 -0.32 -0.9 -0.32 -2.3 c0 -1.38 0.32 -2.28 0.32 -2.28 c0.98 -0.38 2 -0.6 3.18 -0.6 c0.74 0 1.52 0.1 2.16 0.24 c-0.04 -1.18 -0.16 -2.6 -0.16 -2.6 s-1.08 -0.26 -2 -0.26 c-1.36 0 -2.66 0.34 -3.22 0.48 l0.12 -0.94 c0.98 -0.38 1.92 -0.6 3.1 -0.6 s2.2 0.22 3.16 0.6 z M62.019999999999996 19.14 c0.92 0 2 -0.26 2 -0.26 s0.16 -1.94 0.18 -3.2 c-0.64 -0.1 -1.42 -0.2 -2.18 -0.2 c-0.94 0 -2 0.26 -2 0.26 s-0.2 0.68 -0.2 1.56 c0 0.9 0.2 1.58 0.2 1.58 s1.06 0.26 2 0.26 z"/></g><g id="SvgjsG1010" rel="mainfill" name="symbol" xmlns:name="symbol_mainfill" fill="#FFFFFF" transform="translate(-13.3971251909073, -9.436978533069485) scale(1.16577851883879)"><path xmlns="http://www.w3.org/2000/svg" d="M50.257,46.649c0,0,0.424-6.388-6.264-6.717C43.993,39.932,44.246,45.522,50.257,46.649z"/><path xmlns="http://www.w3.org/2000/svg" d="M61.488,30.824c-6.542-1.435-7.808,4.841-7.808,4.841C59.776,36.153,61.488,30.824,61.488,30.824z"/><path xmlns="http://www.w3.org/2000/svg" d="M49.853,54.055c5.855-1.763,5.508-7.35,5.508-7.35C48.747,47.749,49.853,54.055,49.853,54.055z"/><path xmlns="http://www.w3.org/2000/svg" d="M51.264,41.792c0,0,0.426-6.387-6.262-6.718C45.001,35.074,45.255,40.666,51.264,41.792z"/><path xmlns="http://www.w3.org/2000/svg" d="M52.35,37.265c0,0,0.425-6.386-6.267-6.717C46.083,30.548,46.337,36.139,52.35,37.265z"/><path xmlns="http://www.w3.org/2000/svg" d="M60.078,23.858c-6.586,1.216-5.316,7.49-5.316,7.49C60.569,29.433,60.078,23.858,60.078,23.858z"/><path xmlns="http://www.w3.org/2000/svg" d="M50.871,46.811c6.111-0.259,7.159-5.756,7.159-5.756C51.362,40.427,50.871,46.811,50.871,46.811z"/><path xmlns="http://www.w3.org/2000/svg" d="M52.119,41.008c6.102,0.418,7.747-4.933,7.747-4.933C53.31,34.72,52.119,41.008,52.119,41.008z"/><path xmlns="http://www.w3.org/2000/svg" d="M54.167,32.845c0,0,0.423-6.387-6.266-6.718C47.901,26.127,48.157,31.718,54.167,32.845z"/><path xmlns="http://www.w3.org/2000/svg" d="M55.812,59.953c-6.653,0.769-5.811,7.115-5.811,7.115C55.924,65.549,55.812,59.953,55.812,59.953z"/><path xmlns="http://www.w3.org/2000/svg" d="M55.395,53.831c-6.683,0.442-6.15,6.822-6.15,6.822C55.233,59.425,55.395,53.831,55.395,53.831z"/><path xmlns="http://www.w3.org/2000/svg" d="M49.085,56.842c0,0,0.424-6.391-6.264-6.719C42.821,50.123,43.074,55.714,49.085,56.842z"/><path xmlns="http://www.w3.org/2000/svg" d="M49.569,51.41c0,0,0.426-6.386-6.264-6.717C43.306,44.693,43.559,50.285,49.569,51.41z"/><path xmlns="http://www.w3.org/2000/svg" d="M43.071,61.268c0,0,0.253,5.592,6.265,6.718C49.335,67.985,49.76,61.599,43.071,61.268z"/><path xmlns="http://www.w3.org/2000/svg" d="M49.059,62.457c0,0,0.425-6.388-6.264-6.717C42.795,55.74,43.051,61.331,49.059,62.457z"/><path xmlns="http://www.w3.org/2000/svg" d="M83.114,61.629c0,0,6.599-7.617-3.84-43.781c0,0,0.435-0.781,0.879-1.843c1.133-2.049,1.716-4.152,0.38-5.36  c-0.004-0.004-0.007-0.004-0.011-0.007c-0.138-0.151-0.314-0.273-0.515-0.377c-0.07-0.044-0.138-0.082-0.209-0.119  c-0.01-0.003-0.018-0.008-0.032-0.012c-3.015-1.523-6.823,2.599-7.138,2.953c-1.08,0.667-2.422,1.394-3.985,2.103  c-1.032-1.543-2.787-2.561-4.784-2.561c-0.141,0-0.272,0.031-0.409,0.042c-0.546-2.61-2.86-4.572-5.632-4.572  c-2.371,0-4.403,1.435-5.285,3.482c-0.882-2.047-2.914-3.482-5.285-3.482c-2.373,0-4.404,1.435-5.286,3.482  c-0.882-2.047-2.914-3.482-5.286-3.482c-2.797,0-5.125,1.996-5.643,4.643c-1.416,0.278-2.631,1.084-3.468,2.193  c-6.417-2.74-10.051-1.358-11.305-0.638c-0.071,0.037-0.132,0.077-0.196,0.119c-0.206,0.128-0.344,0.23-0.344,0.23l-0.087,0.091  c-0.055,0.052-0.107,0.105-0.158,0.164l-0.064,0.067l0.019,0.012c-0.713,0.939-0.425,2.473,1.909,4.974  c0,0-5.847,4.178,0.279,39.299c0,0-4.939,15.743,0.078,23.526c7.018,1.056,16.031,1.667,21.835-0.733c0,0-8.135,5.463-21.873,2.337  c-1.279,2.19-3.532,7.78,6.968,7.514l-0.031,0.018h58.139l1.26-6.628l-0.015-0.017C89.208,68.474,83.114,61.629,83.114,61.629z   M55.212,79.807l-0.017-0.037l-4.444,6.532c-0.805-3.06-3.319-6.579-3.862-7.314C36.528,66.155,20.185,64.767,20.185,64.767  s6.629-1.729,15.782,1.841c5.623,2.193,10.488,7.72,13.416,11.668l-0.671-6.245c0,0-5.204-2.159-7.435-8.981l-2.682-6.406  c0,0,2.375,3.356,3.241,3.395c0.864,0.033,1.344,0.338,1.344,0.338l-2.049-5.064c0,0-1.159-2.725-1.938-4.133  c-0.78-1.409,1.6,2.922,2.799,3.197c1.2,0.272,0.893-0.219,0.893-0.219s-1.17-2.111-1.914-4.384  c-0.743-2.276-1.539-4.044-1.539-4.044s2.187,3.187,2.879,3.408c0.695,0.225,1.253-0.231,1.253-0.231s-1.86-3.919-2.142-4.665  c-0.285-0.744-1.119-2.618-1.119-2.618s1.676,2.162,2.394,2.131c0.719-0.029,1.196-0.696,1.196-0.696s-0.879-2.953-1.407-4.336  c-0.525-1.382-0.647-1.703-0.957-2.194c-0.308-0.492,1.541,1.486,1.541,1.486l1.614,0.723c0,0-0.363-3.515-0.9-4.285  c-0.537-0.771-1.077-2.512-1.077-2.512s1.553,1.844,2.672,1.904c1.122,0.062,1.122,0.062,1.122,0.062s-1.119-2.618-2.076-4.811  c-0.957-2.193-1.2-2.832-1.2-2.832s1.332,2.538,3.65,2.872l0.588,0.264l0.557-0.456l-1.083-3.484l-1.2-2.832  c0,0,1.17,2.112,1.971,2.295c0.799,0.183,2.891,0.239,2.891,0.239l3.726,2.113c0,0,2.646-3.93,3.817-4.375  c1.162-0.443,1.11-0.189,3.082-1.174c1.021-0.511,3.425-2.521,3.425-2.521l-3.332,4.677l-0.479,3.227L59.327,28.9  c0,0,1.084,0.928,1.441,0.913c0.362-0.016,1.977,0.709,2.4,0.547c0.427-0.161,2.875-1.093,2.875-1.093l-4.579,3.327l-1.47,1.899  l0.948,0.248l1.382-0.527l1.504-0.208l-3.436,3.134l-0.886,1.19c0,0-0.847,1.296-1.045,1.736c-0.196,0.44-0.845,1.297,1.692-0.033  c2.536-1.334,2.536-1.334,2.536-1.334s-3.076,2.149-3.514,2.924c-0.435,0.773-1.069,1.987-1.069,1.987l-2.053,2.61  c0,0,1.36-0.273,2.021-0.771c0.666-0.495-0.764,1.51-0.764,1.51l-0.897,1.804c0,0-1.718,2.844-1.953,3.179  c-0.239,0.333-0.872,1.549-0.872,1.549s2.305-0.023,3.049-0.308c0.743-0.283,1.815-1.303,1.815-1.303l-2.34,3.45l-1.211,2.896  l-0.968,0.978c0,0,0.628,0.37,0.947,0.248c0.319-0.121,1.702-0.646,2.513-1.078c0.811-0.43,2.365-1.142,2.365-1.142l-2.797,2.89  l-0.451,2.973c0,0-2.26,6.219-6.444,8.66l1.727,8.747c2.624-3.757,7.742-10.117,13.79-12.479c8.788-3.424,15.149-1.768,15.149-1.768  S65.164,67.602,55.212,79.807z M80.287,57.232c2.697-20.305-4.554-34.838-4.554-34.838C87.2,40.607,80.287,57.232,80.287,57.232z"/></g>
			</g>
		</svg>
    